<svg xmlns="http://www.w3.org/2000/svg" xmlns:xlink="http://www.w3.org/1999/xlink" zoomAndPan="magnify" viewBox="197 632 1066 224" preserveAspectRatio="xMidYMid meet" version="1.0"><defs><g/><clipPath id="fa365c06c2"><path d="M 0.480469 0.679688 L 572 0.679688 L 572 156 L 0.480469 156 Z M 0.480469 0.679688 " clip-rule="nonzero"/></clipPath><clipPath id="e8be12706a"><rect x="0" width="572" y="0" height="156"/></clipPath><clipPath id="f9361ff017"><path d="M 9 149 L 789.601562 149 L 789.601562 204.917969 L 9 204.917969 Z M 9 149 " clip-rule="nonzero"/></clipPath><clipPath id="4b8d63131e"><rect x="0" width="781" y="0" height="56"/></clipPath><clipPath id="aba522c921"><rect x="0" width="790" y="0" height="205"/></clipPath><clipPath id="dd242546be"><path d="M 257 649 L 449 649 L 449 851 L 257 851 Z M 257 649 " clip-rule="nonzero"/></clipPath><clipPath id="3cb5a3fb01"><path d="M 397.894531 629.375 L 468.640625 693.375 L 308.140625 870.796875 L 237.394531 806.796875 Z M 397.894531 629.375 " clip-rule="nonzero"/></clipPath><clipPath id="4f029b7b31"><path d="M 433.265625 661.375 C 442.648438 669.859375 448.277344 681.726562 448.910156 694.363281 C 449.542969 706.996094 445.128906 719.367188 436.640625 728.75 L 340.292969 835.257812 C 331.808594 844.636719 319.941406 850.265625 307.304688 850.898438 C 294.671875 851.53125 282.300781 847.117188 272.917969 838.632812 C 263.539062 830.144531 257.910156 818.277344 257.277344 805.644531 C 256.644531 793.007812 261.058594 780.640625 269.542969 771.257812 L 365.894531 664.75 C 374.378906 655.367188 386.246094 649.742188 398.882812 649.109375 C 411.515625 648.476562 423.886719 652.886719 433.265625 661.375 Z M 433.265625 661.375 " clip-rule="nonzero"/></clipPath><clipPath id="fb6605d04a"><path d="M 0 0 L 192 0 L 192 202 L 0 202 Z M 0 0 " clip-rule="nonzero"/></clipPath><clipPath id="3fad99b7f1"><path d="M 140.894531 -19.625 L 211.640625 44.375 L 51.140625 221.796875 L -19.605469 157.796875 Z M 140.894531 -19.625 " clip-rule="nonzero"/></clipPath><clipPath id="bd69d397af"><path d="M 176.265625 12.375 C 185.648438 20.859375 191.277344 32.726562 191.910156 45.363281 C 192.542969 57.996094 188.128906 70.367188 179.640625 79.75 L 83.292969 186.257812 C 74.808594 195.636719 62.941406 201.265625 50.304688 201.898438 C 37.671875 202.53125 25.300781 198.117188 15.917969 189.632812 C 6.539062 181.144531 0.910156 169.277344 0.277344 156.644531 C -0.355469 144.007812 4.058594 131.640625 12.542969 122.257812 L 108.894531 15.75 C 117.378906 6.367188 129.246094 0.742188 141.882812 0.109375 C 154.515625 -0.523438 166.886719 3.886719 176.265625 12.375 Z M 176.265625 12.375 " clip-rule="nonzero"/></clipPath><clipPath id="c9e9155229"><rect x="0" width="192" y="0" height="202"/></clipPath><clipPath id="eeb82cbbe4"><path d="M 202.222656 637.199219 L 300.726562 637.199219 L 300.726562 723.859375 L 202.222656 723.859375 Z M 202.222656 637.199219 " clip-rule="nonzero"/></clipPath><clipPath id="848b203d86"><path d="M 251.363281 637.199219 C 224.222656 637.199219 202.222656 656.597656 202.222656 680.527344 C 202.222656 704.457031 224.222656 723.859375 251.363281 723.859375 C 278.503906 723.859375 300.507812 704.457031 300.507812 680.527344 C 300.507812 656.597656 278.503906 637.199219 251.363281 637.199219 Z M 251.363281 637.199219 " clip-rule="nonzero"/></clipPath><clipPath id="a1c30c3d01"><path d="M 0.222656 0.199219 L 98.71875 0.199219 L 98.71875 86.859375 L 0.222656 86.859375 Z M 0.222656 0.199219 " clip-rule="nonzero"/></clipPath><clipPath id="7842687218"><path d="M 49.363281 0.199219 C 22.222656 0.199219 0.222656 19.597656 0.222656 43.527344 C 0.222656 67.457031 22.222656 86.859375 49.363281 86.859375 C 76.503906 86.859375 98.507812 67.457031 98.507812 43.527344 C 98.507812 19.597656 76.503906 0.199219 49.363281 0.199219 Z M 49.363281 0.199219 " clip-rule="nonzero"/></clipPath><clipPath id="989eb7ba8b"><rect x="0" width="99" y="0" height="87"/></clipPath></defs><g transform="matrix(1, 0, 0, 1, 468, 643)"><g clip-path="url(#aba522c921)"><g clip-path="url(#fa365c06c2)"><g transform="matrix(1, 0, 0, 1, 0, 0.000000000000113687)"><g clip-path="url(#e8be12706a)"><g fill="#000000" fill-opacity="1"><g transform="translate(0.645198, 115.849265)"><g><path d="M 12.140625 0 L 12.140625 -79.234375 L 28.328125 -79.234375 L 64.0625 -26.75 L 61.140625 -26.75 L 96.546875 -79.234375 L 112.84375 -79.234375 L 112.84375 0 L 97.21875 0 L 97.21875 -57.65625 L 98.671875 -57.65625 L 67.4375 -12.359375 L 57.4375 -12.359375 L 26.078125 -57.765625 L 27.765625 -57.765625 L 27.765625 0 Z M 12.140625 0 "/></g></g></g><g fill="#000000" fill-opacity="1"><g transform="translate(125.460761, 115.849265)"><g><path d="M 55.96875 1.125 C 46.375 1.125 38 -0.503906 30.84375 -3.765625 C 23.695312 -7.023438 18.171875 -11.707031 14.265625 -17.8125 C 10.367188 -23.914062 8.421875 -31.164062 8.421875 -39.5625 C 8.421875 -47.957031 10.390625 -55.207031 14.328125 -61.3125 C 18.265625 -67.414062 23.789062 -72.113281 30.90625 -75.40625 C 38.019531 -78.707031 46.410156 -80.359375 56.078125 -80.359375 C 63.117188 -80.359375 69.539062 -79.515625 75.34375 -77.828125 C 81.15625 -76.140625 86.085938 -73.570312 90.140625 -70.125 L 84.1875 -57.546875 C 79.988281 -60.546875 75.710938 -62.738281 71.359375 -64.125 C 67.015625 -65.507812 62.144531 -66.203125 56.75 -66.203125 C 47.09375 -66.203125 39.546875 -63.914062 34.109375 -59.34375 C 28.679688 -54.769531 25.96875 -48.175781 25.96875 -39.5625 C 25.96875 -31.019531 28.660156 -24.460938 34.046875 -19.890625 C 39.441406 -15.316406 47.007812 -13.03125 56.75 -13.03125 C 62.144531 -13.03125 67.015625 -13.722656 71.359375 -15.109375 C 75.710938 -16.503906 79.988281 -18.695312 84.1875 -21.6875 L 90.140625 -9.109375 C 86.085938 -5.734375 81.140625 -3.179688 75.296875 -1.453125 C 69.453125 0.265625 63.007812 1.125 55.96875 1.125 Z M 55.96875 1.125 "/></g></g></g><g fill="#000000" fill-opacity="1"><g transform="translate(221.740636, 115.849265)"><g><path d="M 11.90625 0 L 11.90625 -79.234375 L 76.53125 -79.234375 L 76.53125 -66.203125 L 28.65625 -66.203125 L 28.65625 -45.96875 L 73.734375 -45.96875 L 73.734375 -32.9375 L 28.65625 -32.9375 L 28.65625 0 Z M 11.90625 0 "/></g></g></g><g fill="#000000" fill-opacity="1"><g transform="translate(302.404521, 115.849265)"><g><path d="M 1.34375 0 L 45.296875 -79.234375 L 60.125 -79.234375 L 103.96875 0 L 86.65625 0 L 74.734375 -22.140625 L 82.375 -17.078125 L 22.703125 -17.078125 L 30.34375 -22.140625 L 18.4375 0 Z M 52.375 -63.84375 L 32.375 -26.1875 L 28.203125 -29.890625 L 76.875 -29.890625 L 72.71875 -26.1875 L 52.71875 -63.84375 Z M 52.375 -63.84375 "/></g></g></g><g fill="#000000" fill-opacity="1"><g transform="translate(407.672016, 115.849265)"><g><path d="M 11.90625 0 L 11.90625 -79.234375 L 28.65625 -79.234375 L 28.65625 -13.828125 L 76.65625 -13.828125 L 76.65625 0 Z M 11.90625 0 "/></g></g></g><g fill="#000000" fill-opacity="1"><g transform="translate(487.437139, 115.849265)"><g><path d="M 11.90625 0 L 11.90625 -79.234375 L 28.65625 -79.234375 L 28.65625 -13.828125 L 76.65625 -13.828125 L 76.65625 0 Z M 11.90625 0 "/></g></g></g></g></g></g><g clip-path="url(#f9361ff017)"><g transform="matrix(1, 0, 0, 1, 9, 149)"><g clip-path="url(#4b8d63131e)"><g fill="#000000" fill-opacity="1"><g transform="translate(3.721984, 38.575511)"><g><path d="M 15.484375 0 L -0.453125 -29.203125 L 6.5 -29.203125 L 18.9375 -5.71875 L 17.734375 -5.71875 L 30.109375 -29.203125 L 36.859375 -29.203125 L 20.953125 0 Z M 15.484375 0 "/></g></g></g><g fill="#000000" fill-opacity="1"><g transform="translate(56.958553, 38.575511)"><g><path d="M 4.390625 0 L 4.390625 -29.203125 L 28.578125 -29.203125 L 28.578125 -24.390625 L 10.390625 -24.390625 L 10.390625 -17.234375 L 27.21875 -17.234375 L 27.21875 -12.421875 L 10.390625 -12.421875 L 10.390625 -4.8125 L 28.578125 -4.8125 L 28.578125 0 Z M 4.390625 0 "/></g></g></g><g fill="#000000" fill-opacity="1"><g transform="translate(105.26503, 38.575511)"><g><path d="M 4.390625 0 L 4.390625 -29.203125 L 9.40625 -29.203125 L 30.203125 -7.65625 L 29.40625 -7.65625 L 29.40625 -29.203125 L 35.375 -29.203125 L 35.375 0 L 30.234375 0 L 9.609375 -21.453125 L 10.359375 -21.453125 L 10.359375 0 Z M 4.390625 0 "/></g></g></g><g fill="#000000" fill-opacity="1"><g transform="translate(161.815948, 38.575511)"><g><path d="M 4.390625 0 L 4.390625 -29.203125 L 18.265625 -29.203125 C 22.265625 -29.203125 25.625 -28.648438 28.34375 -27.546875 C 31.070312 -26.441406 33.125 -24.804688 34.5 -22.640625 C 35.882812 -20.472656 36.578125 -17.800781 36.578125 -14.625 C 36.578125 -11.445312 35.878906 -8.765625 34.484375 -6.578125 C 33.085938 -4.398438 31.035156 -2.757812 28.328125 -1.65625 C 25.617188 -0.550781 22.265625 0 18.265625 0 Z M 10.5625 -4.96875 L 17.890625 -4.96875 C 22.140625 -4.96875 25.253906 -5.734375 27.234375 -7.265625 C 29.210938 -8.796875 30.203125 -11.25 30.203125 -14.625 C 30.203125 -17.96875 29.210938 -20.40625 27.234375 -21.9375 C 25.253906 -23.46875 22.140625 -24.234375 17.890625 -24.234375 L 10.5625 -24.234375 Z M 10.5625 -4.96875 "/></g></g></g><g fill="#000000" fill-opacity="1"><g transform="translate(218.284001, 38.575511)"><g><path d="M 4.390625 0 L 4.390625 -29.203125 L 10.5625 -29.203125 L 10.5625 0 Z M 4.390625 0 "/></g></g></g><g fill="#000000" fill-opacity="1"><g transform="translate(249.977325, 38.575511)"><g><path d="M 4.390625 0 L 4.390625 -29.203125 L 9.40625 -29.203125 L 30.203125 -7.65625 L 29.40625 -7.65625 L 29.40625 -29.203125 L 35.375 -29.203125 L 35.375 0 L 30.234375 0 L 9.609375 -21.453125 L 10.359375 -21.453125 L 10.359375 0 Z M 4.390625 0 "/></g></g></g><g fill="#000000" fill-opacity="1"><g transform="translate(306.528243, 38.575511)"><g><path d="M 21.5 0.421875 C 17.6875 0.421875 14.40625 -0.164062 11.65625 -1.34375 C 8.90625 -2.519531 6.789062 -4.222656 5.3125 -6.453125 C 3.84375 -8.691406 3.109375 -11.390625 3.109375 -14.546875 C 3.109375 -17.691406 3.832031 -20.390625 5.28125 -22.640625 C 6.726562 -24.890625 8.804688 -26.613281 11.515625 -27.8125 C 14.222656 -29.007812 17.410156 -29.609375 21.078125 -29.609375 C 22.878906 -29.609375 24.570312 -29.46875 26.15625 -29.1875 C 27.75 -28.914062 29.226562 -28.519531 30.59375 -28 C 31.957031 -27.476562 33.132812 -26.816406 34.125 -26.015625 L 31.890625 -21.375 C 30.347656 -22.476562 28.710938 -23.265625 26.984375 -23.734375 C 25.253906 -24.203125 23.34375 -24.4375 21.25 -24.4375 C 17.488281 -24.4375 14.585938 -23.597656 12.546875 -21.921875 C 10.503906 -20.253906 9.484375 -17.796875 9.484375 -14.546875 C 9.484375 -11.253906 10.519531 -8.78125 12.59375 -7.125 C 14.664062 -5.46875 17.703125 -4.640625 21.703125 -4.640625 C 23.253906 -4.640625 24.738281 -4.75 26.15625 -4.96875 C 27.582031 -5.1875 28.984375 -5.519531 30.359375 -5.96875 L 29.28125 -4.515625 L 29.28125 -11.6875 L 20.828125 -11.6875 L 20.828125 -16.203125 L 34.59375 -16.203125 L 34.59375 -1.953125 C 33.488281 -1.453125 32.222656 -1.03125 30.796875 -0.6875 C 29.367188 -0.34375 27.867188 -0.0703125 26.296875 0.125 C 24.722656 0.320312 23.125 0.421875 21.5 0.421875 Z M 21.5 0.421875 "/></g></g></g><g fill="#000000" fill-opacity="1"><g transform="translate(361.919152, 38.575511)"><g/></g></g><g fill="#000000" fill-opacity="1"><g transform="translate(392.742416, 38.575511)"><g><path d="M 16.9375 0.421875 C 15.0625 0.421875 13.234375 0.285156 11.453125 0.015625 C 9.671875 -0.242188 8.019531 -0.632812 6.5 -1.15625 C 4.976562 -1.6875 3.640625 -2.320312 2.484375 -3.0625 L 4.5625 -7.78125 C 5.882812 -7.007812 7.203125 -6.390625 8.515625 -5.921875 C 9.828125 -5.453125 11.207031 -5.113281 12.65625 -4.90625 C 14.101562 -4.695312 15.640625 -4.59375 17.265625 -4.59375 C 19.722656 -4.59375 21.628906 -4.890625 22.984375 -5.484375 C 24.335938 -6.078125 25.015625 -6.984375 25.015625 -8.203125 C 25.015625 -9.003906 24.804688 -9.609375 24.390625 -10.015625 C 23.984375 -10.429688 23.382812 -10.742188 22.59375 -10.953125 C 21.8125 -11.160156 20.867188 -11.332031 19.765625 -11.46875 L 12.84375 -12.390625 C 9.582031 -12.796875 7.164062 -13.691406 5.59375 -15.078125 C 4.019531 -16.460938 3.234375 -18.300781 3.234375 -20.59375 C 3.234375 -22.46875 3.816406 -24.082031 4.984375 -25.4375 C 6.160156 -26.789062 7.796875 -27.820312 9.890625 -28.53125 C 11.992188 -29.25 14.441406 -29.609375 17.234375 -29.609375 C 18.972656 -29.609375 20.632812 -29.46875 22.21875 -29.1875 C 23.8125 -28.914062 25.269531 -28.507812 26.59375 -27.96875 C 27.914062 -27.4375 29.085938 -26.769531 30.109375 -25.96875 L 28 -21.421875 C 26.425781 -22.546875 24.757812 -23.359375 23 -23.859375 C 21.25 -24.359375 19.226562 -24.609375 16.9375 -24.609375 C 15.363281 -24.609375 14.003906 -24.46875 12.859375 -24.1875 C 11.710938 -23.914062 10.84375 -23.507812 10.25 -22.96875 C 9.65625 -22.425781 9.359375 -21.753906 9.359375 -20.953125 C 9.359375 -19.878906 9.78125 -19.097656 10.625 -18.609375 C 11.46875 -18.128906 12.773438 -17.753906 14.546875 -17.484375 L 21.046875 -16.5625 C 24.378906 -16.125 26.898438 -15.25 28.609375 -13.9375 C 30.328125 -12.625 31.1875 -10.796875 31.1875 -8.453125 C 31.1875 -6.628906 30.613281 -5.046875 29.46875 -3.703125 C 28.320312 -2.367188 26.675781 -1.347656 24.53125 -0.640625 C 22.394531 0.0664062 19.863281 0.421875 16.9375 0.421875 Z M 16.9375 0.421875 "/></g></g></g><g fill="#000000" fill-opacity="1"><g transform="translate(442.664636, 38.575511)"><g><path d="M 4.390625 0 L 4.390625 -29.203125 L 28.578125 -29.203125 L 28.578125 -24.390625 L 10.390625 -24.390625 L 10.390625 -17.234375 L 27.21875 -17.234375 L 27.21875 -12.421875 L 10.390625 -12.421875 L 10.390625 -4.8125 L 28.578125 -4.8125 L 28.578125 0 Z M 4.390625 0 "/></g></g></g><g fill="#000000" fill-opacity="1"><g transform="translate(490.971113, 38.575511)"><g><path d="M 4.390625 0 L 4.390625 -29.203125 L 20.546875 -29.203125 C 24.460938 -29.203125 27.457031 -28.460938 29.53125 -26.984375 C 31.601562 -25.503906 32.640625 -23.359375 32.640625 -20.546875 C 32.640625 -18.722656 32.191406 -17.179688 31.296875 -15.921875 C 30.398438 -14.671875 29.109375 -13.691406 27.421875 -12.984375 C 25.734375 -12.273438 23.703125 -11.867188 21.328125 -11.765625 L 21.703125 -12.140625 L 23.203125 -12.09375 C 24.328125 -12.039062 25.335938 -11.757812 26.234375 -11.25 C 27.140625 -10.738281 27.976562 -9.941406 28.75 -8.859375 L 34.921875 0 L 28.078125 0 L 22.125 -8.78125 C 21.707031 -9.382812 21.285156 -9.859375 20.859375 -10.203125 C 20.429688 -10.554688 19.890625 -10.804688 19.234375 -10.953125 C 18.585938 -11.109375 17.738281 -11.1875 16.6875 -11.1875 L 10.5625 -11.1875 L 10.5625 0 Z M 10.5625 -15.703125 L 19.921875 -15.703125 C 22.265625 -15.703125 23.960938 -16.070312 25.015625 -16.8125 C 26.066406 -17.5625 26.59375 -18.679688 26.59375 -20.171875 C 26.59375 -21.640625 26.0625 -22.71875 25 -23.40625 C 23.9375 -24.09375 22.21875 -24.4375 19.84375 -24.4375 L 10.5625 -24.4375 Z M 10.5625 -15.703125 "/></g></g></g><g fill="#000000" fill-opacity="1"><g transform="translate(543.917679, 38.575511)"><g><path d="M 15.484375 0 L -0.453125 -29.203125 L 6.5 -29.203125 L 18.9375 -5.71875 L 17.734375 -5.71875 L 30.109375 -29.203125 L 36.859375 -29.203125 L 20.953125 0 Z M 15.484375 0 "/></g></g></g><g fill="#000000" fill-opacity="1"><g transform="translate(597.154248, 38.575511)"><g><path d="M 4.390625 0 L 4.390625 -29.203125 L 10.5625 -29.203125 L 10.5625 0 Z M 4.390625 0 "/></g></g></g><g fill="#000000" fill-opacity="1"><g transform="translate(628.847572, 38.575511)"><g><path d="M 20.625 0.421875 C 17.09375 0.421875 14.007812 -0.175781 11.375 -1.375 C 8.738281 -2.582031 6.703125 -4.3125 5.265625 -6.5625 C 3.828125 -8.8125 3.109375 -11.484375 3.109375 -14.578125 C 3.109375 -17.671875 3.832031 -20.34375 5.28125 -22.59375 C 6.726562 -24.84375 8.765625 -26.570312 11.390625 -27.78125 C 14.015625 -29 17.109375 -29.609375 20.671875 -29.609375 C 23.265625 -29.609375 25.628906 -29.296875 27.765625 -28.671875 C 29.910156 -28.054688 31.726562 -27.113281 33.21875 -25.84375 L 31.03125 -21.203125 C 29.476562 -22.304688 27.898438 -23.113281 26.296875 -23.625 C 24.703125 -24.132812 22.910156 -24.390625 20.921875 -24.390625 C 17.359375 -24.390625 14.570312 -23.546875 12.5625 -21.859375 C 10.5625 -20.179688 9.5625 -17.753906 9.5625 -14.578125 C 9.5625 -11.429688 10.554688 -9.015625 12.546875 -7.328125 C 14.535156 -5.648438 17.328125 -4.8125 20.921875 -4.8125 C 22.910156 -4.8125 24.703125 -5.066406 26.296875 -5.578125 C 27.898438 -6.085938 29.476562 -6.894531 31.03125 -8 L 33.21875 -3.359375 C 31.726562 -2.109375 29.90625 -1.164062 27.75 -0.53125 C 25.59375 0.101562 23.21875 0.421875 20.625 0.421875 Z M 20.625 0.421875 "/></g></g></g><g fill="#000000" fill-opacity="1"><g transform="translate(681.131269, 38.575511)"><g><path d="M 4.390625 0 L 4.390625 -29.203125 L 28.578125 -29.203125 L 28.578125 -24.390625 L 10.390625 -24.390625 L 10.390625 -17.234375 L 27.21875 -17.234375 L 27.21875 -12.421875 L 10.390625 -12.421875 L 10.390625 -4.8125 L 28.578125 -4.8125 L 28.578125 0 Z M 4.390625 0 "/></g></g></g><g fill="#000000" fill-opacity="1"><g transform="translate(729.437746, 38.575511)"><g><path d="M 16.9375 0.421875 C 15.0625 0.421875 13.234375 0.285156 11.453125 0.015625 C 9.671875 -0.242188 8.019531 -0.632812 6.5 -1.15625 C 4.976562 -1.6875 3.640625 -2.320312 2.484375 -3.0625 L 4.5625 -7.78125 C 5.882812 -7.007812 7.203125 -6.390625 8.515625 -5.921875 C 9.828125 -5.453125 11.207031 -5.113281 12.65625 -4.90625 C 14.101562 -4.695312 15.640625 -4.59375 17.265625 -4.59375 C 19.722656 -4.59375 21.628906 -4.890625 22.984375 -5.484375 C 24.335938 -6.078125 25.015625 -6.984375 25.015625 -8.203125 C 25.015625 -9.003906 24.804688 -9.609375 24.390625 -10.015625 C 23.984375 -10.429688 23.382812 -10.742188 22.59375 -10.953125 C 21.8125 -11.160156 20.867188 -11.332031 19.765625 -11.46875 L 12.84375 -12.390625 C 9.582031 -12.796875 7.164062 -13.691406 5.59375 -15.078125 C 4.019531 -16.460938 3.234375 -18.300781 3.234375 -20.59375 C 3.234375 -22.46875 3.816406 -24.082031 4.984375 -25.4375 C 6.160156 -26.789062 7.796875 -27.820312 9.890625 -28.53125 C 11.992188 -29.25 14.441406 -29.609375 17.234375 -29.609375 C 18.972656 -29.609375 20.632812 -29.46875 22.21875 -29.1875 C 23.8125 -28.914062 25.269531 -28.507812 26.59375 -27.96875 C 27.914062 -27.4375 29.085938 -26.769531 30.109375 -25.96875 L 28 -21.421875 C 26.425781 -22.546875 24.757812 -23.359375 23 -23.859375 C 21.25 -24.359375 19.226562 -24.609375 16.9375 -24.609375 C 15.363281 -24.609375 14.003906 -24.46875 12.859375 -24.1875 C 11.710938 -23.914062 10.84375 -23.507812 10.25 -22.96875 C 9.65625 -22.425781 9.359375 -21.753906 9.359375 -20.953125 C 9.359375 -19.878906 9.78125 -19.097656 10.625 -18.609375 C 11.46875 -18.128906 12.773438 -17.753906 14.546875 -17.484375 L 21.046875 -16.5625 C 24.378906 -16.125 26.898438 -15.25 28.609375 -13.9375 C 30.328125 -12.625 31.1875 -10.796875 31.1875 -8.453125 C 31.1875 -6.628906 30.613281 -5.046875 29.46875 -3.703125 C 28.320312 -2.367188 26.675781 -1.347656 24.53125 -0.640625 C 22.394531 0.0664062 19.863281 0.421875 16.9375 0.421875 Z M 16.9375 0.421875 "/></g></g></g></g></g></g></g></g><g clip-path="url(#dd242546be)"><g clip-path="url(#3cb5a3fb01)"><g clip-path="url(#4f029b7b31)"><g transform="matrix(1, 0, 0, 1, 257, 649)"><g clip-path="url(#c9e9155229)"><g clip-path="url(#fb6605d04a)"><g clip-path="url(#3fad99b7f1)"><g clip-path="url(#bd69d397af)"><path fill="#1b17ff" d="M 140.894531 -19.625 L 211.640625 44.375 L 51.390625 221.523438 L -19.355469 157.523438 Z M 140.894531 -19.625 " fill-opacity="1" fill-rule="nonzero"/></g></g></g></g></g></g></g></g><g clip-path="url(#eeb82cbbe4)"><g clip-path="url(#848b203d86)"><g transform="matrix(1, 0, 0, 1, 202, 637)"><g clip-path="url(#989eb7ba8b)"><g clip-path="url(#a1c30c3d01)"><g clip-path="url(#7842687218)"><path fill="#1b17ff" d="M 0.222656 0.199219 L 98.390625 0.199219 L 98.390625 86.859375 L 0.222656 86.859375 Z M 0.222656 0.199219 " fill-opacity="1" fill-rule="nonzero"/></g></g></g></g></g></g></svg>